<svg xmlns="http://www.w3.org/2000/svg" viewBox="0 0 98 40"><g fill="#FFFFFF" fill-rule="evenodd"><path d="M57.13 27.3h-2.46v5.24l.08 2.51-4.01-7.74H48v12.48h2.45v-5.23l-.08-2.51 4.03 7.74h2.73V27.31zM63.4 40c3.25 0 4.77-1.8 4.77-6.13v-.64c0-4.32-1.52-6.13-4.77-6.13-3.23 0-4.75 1.8-4.75 6.13v.64c0 4.32 1.52 6.13 4.75 6.13zm-.06-2.24c-1.6 0-2.06-1.4-2.06-3.89v-.64c0-2.5.46-3.89 2.06-3.89h.14c1.6 0 2.05 1.4 2.05 3.89v.64c0 2.5-.45 3.89-2.05 3.89h-.14zm8.94-2.45h1.33l1.7 4.48h2.8l-1.96-4.85c1.12-.46 1.97-1.45 1.97-3.47v-.32c0-3.31-2.3-3.84-4.34-3.84h-4.1v12.48h2.6v-4.48zm0-2.24v-3.52h1.62c.7 0 1.6.27 1.6 1.68v.16c0 1.4-.9 1.68-1.6 1.68h-1.62zm11.95-3.52h2.9V27.3h-8.37v2.24h2.88v10.24h2.59V29.55zM94.5 27.3v5h-3.63v-5H88.3v12.48h2.6v-5.25h3.62v5.25h2.6V27.31h-2.6zM52.74 24.1c2.17 0 3.43-.69 4.36-1.46v-5.5h-4.23v2.24h1.64v2c-.38.27-.96.48-1.7.48h-.14c-1.82 0-2.23-1.4-2.23-3.89v-.64c0-2.5.43-3.89 2.14-3.89h.14c1.44 0 1.8 1 1.8 2.7h2.6v-.57c0-3.12-1.57-4.37-4.54-4.37-3.23 0-4.78 1.8-4.78 6.13v.64c0 4.32 1.55 6.13 4.94 6.13zm8.67-4.69h1.33l1.7 4.48h2.8l-1.96-4.85c1.12-.46 1.97-1.45 1.97-3.47v-.32c0-3.31-2.3-3.84-4.33-3.84h-4.1v12.48h2.6v-4.48zm0-2.24v-3.52h1.62c.7 0 1.6.27 1.6 1.68v.16c0 1.4-.9 1.68-1.6 1.68H61.4zm10.04-5.76h-2.6v12.48h2.6V11.41zm10.93 6.56v-.64c0-4.32-1.55-5.92-5.26-5.92H73.3v12.48h3.82c3.7 0 5.26-1.6 5.26-5.92zm-6.49 3.68v-8h1.09c2.15 0 2.76 1.18 2.76 3.68v.64c0 2.5-.6 3.68-2.76 3.68h-1.09z"/><polygon points="10 0 20 20 0 10 0 40 40 40 40 0"/></g></svg>