<svg height="36" viewBox="0 0 70 36" width="70" xmlns="http://www.w3.org/2000/svg"><g fill="#fff" fill-rule="evenodd"><path d="m60.6315789 36v-10.8771429l5.2631579 10.8771429h4.1052632v-18h-3.6315789v10.7228571l-5.1842106-10.7228571h-4.1842105v18z" fill-rule="nonzero"/><path d="m51.87473 36c1.2699784 0 2.12527-.8485714 2.12527-2.0314286v-8.5114285h-6.012959v3.0342857h2.3066955v3.6771428c0 .3085715-.1295896.4885715-.4665227.4885715h-3.6544276c-.3369331 0-.4665227-.18-.4665227-.4885715v-10.3628571c0-.2828572.1295896-.4628572.4665227-.4628572h3.6544276c.3369331 0 .4665227.18.4665227.4628572v1.5428571h3.7062635v-3.3171428c0-1.1828572-.8552916-2.0314286-2.12527-2.0314286h-7.74946c-1.2958963 0-2.12527.8485714-2.12527 2.0314286v13.9371428c0 1.1828572.8293737 2.0314286 2.12527 2.0314286z" fill-rule="nonzero"/><path d="m9 0 9 18-18-9v27h36v-36z"/></g></svg>